<svg width="50" height="19" viewBox="0 0 50 19" fill="none" xmlns="http://www.w3.org/2000/svg">
<path id="Union" fill-rule="evenodd" clip-rule="evenodd" d="M34.5956 0.429433C33.2553 0.569173 31.0498 1.22129 29.8113 1.82684C28.3693 2.54106 26.554 3.84531 25.6718 4.79244L24.8914 5.64641L24.9253 10.0715L24.9762 14.4966L27.1987 13.2079C34.0018 9.26413 38.0056 7.83567 42.8068 7.64935L43.8417 7.6183L40.262 4.04716L40.0317 3.81818C37.4452 1.24637 36.7122 0.517527 35.8809 0.37931C35.5522 0.324649 35.2081 0.362361 34.728 0.414986L34.5956 0.429433ZM11.8619 3.39492C11.5566 3.5036 10.827 4.00046 10.2502 4.51284C9.65643 5.02522 7.82417 6.59342 6.16156 8.00635L3.15869 10.5683L7.45093 10.6614C9.80912 10.7235 12.4727 10.8477 13.3549 10.9409C17.0024 11.3446 20.5482 12.2141 22.9064 13.301C23.4493 13.5649 23.9413 13.7512 23.9582 13.7202C23.9922 13.6891 24.0431 11.8725 24.06 9.68323C24.094 6.42262 24.06 5.64629 23.8565 5.42891C23.3136 4.82337 20.0732 3.78308 17.5962 3.41044C15.8658 3.14649 12.6423 3.14649 11.8619 3.39492ZM29.0477 13.363C31.2362 11.6241 35.783 9.71427 39.0234 9.17084C40.5333 8.92241 43.2477 8.89136 44.1299 9.10873C44.7068 9.24847 45.589 9.90059 45.589 10.1645C45.589 10.2111 44.5032 10.2577 43.1799 10.2732C40.652 10.2888 38.4805 10.5682 36.5634 11.1117C35.4267 11.4377 34.6293 11.8259 35.4097 11.6706C36.7839 11.4067 40.2279 11.0961 42.2807 11.0806C44.7916 11.034 45.2666 11.1427 45.9792 11.857C46.2843 12.1673 46.2676 12.1675 40.8173 12.2449L40.8047 12.2451C34.3409 12.3383 32.7292 12.5246 28.8781 13.6736C28.6236 13.7512 28.6745 13.6736 29.0477 13.363ZM5.29627 12.1831C5.00786 12.2452 6.31419 12.3384 8.18038 12.4005C12.4557 12.5247 14.9156 12.7421 17.5792 13.2079C18.7498 13.4253 19.7168 13.565 19.7508 13.5339C19.8186 13.4718 17.7828 12.9595 16.0693 12.6023C15.4585 12.4781 14.2201 12.2918 13.3209 12.2142C11.5395 12.0279 6.12757 12.0123 5.29627 12.1831ZM31.4228 14.6209C33.8319 13.9999 37.174 13.4564 39.651 13.2857C42.077 13.1304 44.1468 13.1149 45.4023 13.2235L46.4371 13.3322V14.3104V15.3041H37.8357C33.1193 15.3041 29.2851 15.2731 29.3191 15.2265C29.37 15.1954 30.32 14.916 31.4228 14.6209ZM5.12641 13.3785C4.84127 13.4022 4.40762 13.4531 4.03724 13.4966L4.03655 13.4967C3.92236 13.5101 3.8142 13.5228 3.71828 13.5337L2.98877 13.6114L3.03967 14.6517L3.09056 15.6919L4.53262 15.6609C5.32999 15.6298 9.18113 15.5367 13.1001 15.4435C17.0191 15.3504 20.6328 15.2261 21.1417 15.164L22.0579 15.0709L20.3783 14.6517C16.9173 13.7666 13.9823 13.4095 9.70706 13.3629C7.56942 13.3319 5.49965 13.3474 5.12641 13.3785ZM47.54 16.6392C47.7775 16.4995 48.015 16.2045 48.0659 15.9871C48.1677 15.6145 48.2526 15.6766 49.0839 16.8721C49.5928 17.5864 50 18.223 50 18.2851C50 18.3472 49.7964 18.3627 49.5419 18.3316C47.7775 18.0677 33.2721 17.1671 30.7443 17.1671C29.9978 17.1671 28.7933 17.2758 28.0807 17.4C26.486 17.6795 24.4671 17.7261 21.7526 17.5708C19.6489 17.4466 15.9505 17.5708 5.82214 18.0987C2.64962 18.2695 0.0369489 18.3782 0.00301813 18.3472C-0.0818088 18.2851 1.64866 16.0803 1.76742 16.0803C1.80135 16.0803 2.07279 16.189 2.34424 16.3287C2.81927 16.5461 3.61664 16.5461 11.0305 16.3287C20.9765 16.0337 21.7298 16.0056 22.3861 16.2444C22.4553 16.2695 22.5233 16.2976 22.6009 16.3287C23.517 16.7169 26.5708 16.7169 28.0638 16.3442C28.9969 16.1113 29.4719 16.0958 32.3051 16.2355C44.7577 16.8256 47.1159 16.9032 47.54 16.6392Z" fill="#FAFAFA"/>
</svg>
