<svg width="16" height="12" viewBox="0 0 16 12" fill="none" xmlns="http://www.w3.org/2000/svg">
<g id="Vector">
<path d="M2.24863 0.198745H8.13802e-07L0.00450709 8.93516H2.24863V0.198745Z" fill="#0A0A0A"/>
<path d="M15.9323 1.80627C13.9319 -0.745938 9.79126 -0.453817 8.06185 1.80627C8.69769 2.64851 8.8972 3.0055 9.31262 4.17399C10.4018 2.156 12.3831 1.57565 14.5054 3.67174L15.9323 1.80627Z" fill="#0A0A0A"/>
<path d="M8.86108 5.63479C8.86108 2.50859 6.60787 -0.166616 2.24595 0.197253L2.25046 2.50859H3.22128C3.73224 2.47915 3.98987 2.5061 4.40433 2.62134C5.87185 3.19021 6.61679 4.09218 6.72076 7.23889C7.23967 10.0524 8.81581 11.4694 10.9698 11.9282C13.3404 12.2152 14.5154 11.6594 16 9.94485L14.5731 8.31C11.6546 11.4197 9.06882 8.78312 8.86108 5.63479Z" fill="#0A0A0A"/>
<path d="M2.29111 9.52722V11.8334C3.81552 11.8621 4.41337 11.7941 4.52174 11.7566C5.38148 11.6172 5.97872 11.3056 6.16988 11.1672C6.58891 10.9745 7.16026 10.4651 7.39356 10.2345L7.38905 10.2242C7.30777 10.1063 7.08651 9.76297 6.85171 9.33247C6.6169 8.90198 6.37157 8.1247 6.27825 7.78987C5.98564 8.35976 5.70779 8.65598 5.60544 8.73286C4.96244 9.42165 3.83539 9.54943 3.35224 9.52722H2.29111Z" fill="#0A0A0A"/>
<path d="M2.29251 9.53024H0L0.0045942 11.8396H2.29251V9.53024Z" fill="#0A0A0A"/>
</g>
</svg>
